<?xml version="1.0" standalone="no"?>
<!DOCTYPE svg PUBLIC "-//W3C//DTD SVG 20010904//EN"
 "http://www.w3.org/TR/2001/REC-SVG-20010904/DTD/svg10.dtd">
<svg version="1.0" xmlns="http://www.w3.org/2000/svg"
 width="367.000000pt" height="367.000000pt" viewBox="0 0 367.000000 367.000000"
 preserveAspectRatio="xMidYMid meet">
<metadata>
Created by potrace 1.11, written by Peter Selinger 2001-2013
</metadata>
<g transform="translate(0.000000,367.000000) scale(0.100000,-0.100000)"
fill="#000000" stroke="none">
<path d="M441 3654 c-30 -8 -84 -29 -120 -47 -90 -43 -215 -168 -258 -257 -67
-137 -63 -48 -63 -1515 0 -1467 -4 -1378 63 -1515 43 -89 168 -214 257 -257
137 -67 48 -63 1515 -63 1467 0 1378 -4 1515 63 89 43 214 168 257 257 67 137
63 48 63 1515 0 1467 4 1378 -63 1515 -43 89 -168 214 -257 257 -137 67 -47
63 -1520 62 -1137 0 -1343 -2 -1389 -15z"/>
</g>
</svg>
